inDegrees=yes
name=ik_S46_A05_T01
DataType=double
version=3
OpenSimVersion=4.3-2021-08-27-4bc7ad9
endheader
time	pelvis_tilt	pelvis_list	pelvis_rotation	pelvis_tx	pelvis_ty	pelvis_tz	hip_flexion_r	hip_adduction_r	hip_rotation_r	knee_angle_r	knee_angle_r_beta	ankle_angle_r	subtalar_angle_r	mtp_angle_r	hip_flexion_l	hip_adduction_l	hip_rotation_l	knee_angle_l	knee_angle_l_beta	ankle_angle_l	subtalar_angle_l	mtp_angle_l	lumbar_extension	lumbar_bending	lumbar_rotation	arm_flex_r	arm_add_r	arm_rot_r	elbow_flex_r	pro_sup_r	wrist_flex_r	wrist_dev_r	arm_flex_l	arm_add_l	arm_rot_l	elbow_flex_l	pro_sup_l	wrist_flex_l	wrist_dev_l
7.199999999999934	-8.805492814012647	-3.70226767586775	28.0228792122983	0	0.9399999999999999	0	41.24418195603935	-12.31103641989578	-11.21681190407273	51.39655932433975	0.8970391844063209	0	0	0	41.24418195603935	-12.31103641989578	-11.21681190407273	51.39655932433975	0.8970391844063209	0	0	0	-8.391219594396283	-2.364273897469489	5.289943651045101	13.69222078178109	-7.897517068264233	-4.15399493392523	80.99559875212532	117.9972098456583	0	0	16.93262736230212	-2.364703245483524	8.641616352386043	54.82561083536915	128.0150238434895	0	0
7.219999999999934	-8.776938286142453	-3.669839482331622	27.74259833942618	0	0.9399999999999999	0	41.24605909455894	-12.30700269619123	-11.21545273609587	51.39776673502342	0.8970602576981747	0	0	0	41.24605909455894	-12.30700269619123	-11.21545273609587	51.39776673502342	0.8970602576981747	0	0	0	-8.347261760704155	-2.36583313381869	5.350609976426715	15.80513246634155	-8.357431360942762	-4.504278619186953	83.17293456791532	116.2499522116875	0	0	16.75200026664538	-2.436940392824682	8.559091939704988	54.89410742764917	127.9657203446788	0	0
7.239999999999934	-8.740489226665824	-3.647962500272248	27.46745518019062	0	0.9399999999999999	0	41.28952722492666	-12.24334623016015	-11.19062916624075	51.43428263252803	0.8976975803389509	0	0	0	41.28952722492666	-12.24334623016015	-11.19062916624075	51.43428263252803	0.8976975803389509	0	0	0	-8.299430401949033	-2.393579698599349	5.529015128802545	21.18476754735012	-8.919262415955465	-5.415302423490891	82.28900633580956	115.1614390830198	0	0	16.56317612254659	-2.508112243727445	8.698709342516512	54.98771062146244	127.8625913705625	0	0
7.259999999999933	-8.694114255878983	-3.617899985772395	27.12963484546948	0	0.9399999999999999	0	41.29162828085165	-12.23894568241134	-11.18913019285234	51.43564628240082	0.8977213805190755	0	0	0	41.29162828085165	-12.23894568241134	-11.18913019285234	51.43564628240082	0.8977213805190755	0	0	0	-8.229565381251103	-2.439910457410463	5.774806027508055	21.14031162642373	-9.147268120799977	-5.799619934110773	88.27218012029536	115.1478376435564	0	0	16.383472095885	-2.563608218266698	8.894685364996546	55.00447352282725	127.7632362203627	0	0
7.279999999999933	-8.642219540355701	-3.610882713221632	26.97195493854367	0	0.9399999999999999	0	41.32932765487192	-12.1861102658691	-11.16813491606428	51.46784275666464	0.8982833150025128	0	0	0	41.32932765487192	-12.1861102658691	-11.16813491606428	51.46784275666464	0.8982833150025128	0	0	0	-8.180664427989598	-2.46166648078379	5.862180883529014	24.18815900115965	-9.474016204175577	-6.327836421444754	89.11497209602682	114.2408638415546	0	0	16.26436019442737	-2.634371301512191	9.082378999796294	55.07255837282066	127.6296013137029	0	0
7.299999999999932	-8.584815156991985	-3.588909231173619	26.90760507972725	0	0.9399999999999999	0	41.33039483184418	-12.18388753981985	-11.16737508395993	51.46853033471825	0.8982953155034127	0	0	0	41.33039483184418	-12.18388753981985	-11.16737508395993	51.46853033471825	0.8982953155034127	0	0	0	-8.119246564605445	-2.468740697339176	5.865399389619714	24.07174998960103	-9.443751261320124	-6.274235634824874	89.12367461468574	114.1900084855515	0	0	16.22189454896437	-2.685838981958852	9.347529473104746	54.95822385508211	127.4953963842767	0	0
7.319999999999932	-8.551816673001671	-3.581501845859708	26.85340550839159	0	0.9399999999999999	0	41.38487796296674	-12.10669095362565	-11.13680988889091	51.51438399172241	0.8990956127922154	0	0	0	41.38487796296674	-12.10669095362565	-11.13680988889091	51.51438399172241	0.8990956127922154	0	0	0	-8.097743367013123	-2.463861555158867	5.899954721092969	30.33530001010284	-9.761114046457259	-6.244080403052036	83.18100870802695	113.2335299418467	0	0	16.26285720361021	-2.70679302785671	9.433979309560478	54.87661727241486	127.3705174654491	0	0
7.339999999999931	-8.495977381328514	-3.579611855944767	26.76428131368851	0	0.9399999999999999	0	41.43162211572989	-12.04178054210998	-11.11087559289445	51.55379327743728	0.8997834345837991	0	0	0	41.43162211572989	-12.04178054210998	-11.11087559289445	51.55379327743728	0.8997834345837991	0	0	0	-8.05296901056701	-2.485187820114599	5.952340625192253	33.18338185738761	-9.961370614475898	-6.981790036210053	88.34571643332525	111.7252114992074	0	0	16.27759078501344	-2.743050065282084	9.480229241607821	54.7695867455504	127.3465774290942	0	0
7.359999999999931	-8.455454078974757	-3.567856941062634	26.81500204875093	0	0.9399999999999999	0	41.43362823697226	-12.0377707863853	-11.10947894653431	51.55509123633799	0.8998060882401719	0	0	0	41.43362823697226	-12.0377707863853	-11.10947894653431	51.55509123633799	0.8998060882401719	0	0	0	-8.013123365064724	-2.487045270977681	5.904399135188316	35.74374939172543	-9.770325267946378	-6.80291880848381	87.44109315336465	111.9084696555945	0	0	16.31231172948434	-2.763976812176178	9.519604955736167	54.64232324491559	127.3263316317657	0	0
7.379999999999931	-8.427386054319374	-3.568866143533723	26.90718937840275	0	0.9399999999999999	0	41.43558582575194	-12.03386459013726	-11.10811726958081	51.55635833405825	0.899828203267335	0	0	0	41.43558582575194	-12.03386459013726	-11.10811726958081	51.55635833405825	0.899828203267335	0	0	0	-7.9926307008278	-2.488501383351581	5.838086249471493	38.15878948141516	-9.489023711296459	-6.595084447611249	86.34054416461697	112.2378522685469	0	0	16.38317461578742	-2.753753877462396	9.533598575070613	54.5176645160693	127.3675431898588	0	0
7.39999999999993	-8.406944112683371	-3.578653958372721	27.07308401918249	0	0.9399999999999999	0	41.4371223171024	-12.03081033593742	-11.10705097360472	51.55735546986428	0.8998456065702397	0	0	0	41.4371223171024	-12.03081033593742	-11.10705097360472	51.55735546986428	0.8998456065702397	0	0	0	-7.984222604024295	-2.490279727198274	5.754314664231662	40.44520157255759	-9.158339970442423	-6.348595689259341	84.51788024861703	112.3056426499442	0	0	16.36022268031992	-2.786112098858415	9.606420341760622	54.50743709614508	127.4108417068627	0	0
7.41999999999993	-8.378070962334434	-3.590021748543612	27.25735311958707	0	0.9399999999999999	0	41.43843350387647	-12.02820831135326	-11.10614188291152	51.55820701724726	0.8998604688758095	0	0	0	41.43843350387647	-12.02820831135326	-11.10614188291152	51.55820701724726	0.8998604688758095	0	0	0	-7.968858168172056	-2.498287133613271	5.676782743834757	42.50861990758681	-8.793067051531899	-6.127516138522931	83.06597724540639	111.9565052829844	0	0	16.41916120267091	-2.781132475170219	9.725357932894919	54.42594495046707	127.4223108511832	0	0
